<svg xmlns="http://www.w3.org/2000/svg" viewBox="0 0 200 220">
  <g fill="black">
    <path d="M100 18a10 10 0 1 0 0 20 10 10 0 0 0 0-20zm0 5a5 5 0 1 1 0 10 5 5 0 0 1 0-10z"/>
    <rect x="96" y="36" width="8" height="8" rx="1.5"/>
    <path d="M62 64 L100 44 L138 64 Z"/>
    <rect x="66" y="64" width="68" height="6"/>
    <rect x="72" y="72" width="56" height="4"/>
    <path d="M70 80 h60 v68 h-60 z M76 86 h48 v56 h-48 z" fill-rule="evenodd"/>
    <rect x="98" y="86" width="4" height="56"/>
    <rect x="68" y="148" width="64" height="6"/>
    <rect x="74" y="154" width="52" height="8"/>
    <rect x="80" y="162" width="40" height="6"/>
    <path d="M84 95 L116 133 L113 136 L81 98 Z"/>
    <path d="M116 95 L84 133 L87 136 L119 98 Z"/>
    <path d="M16 200 Q70 168 110 188 Q150 208 188 184 L188 208 L16 208 Z"/>
  </g>
</svg>
